<?xml version="1.0" encoding="UTF-8" standalone="no"?>
<svg
   xmlns:dc="http://purl.org/dc/elements/1.1/"
   xmlns:cc="http://creativecommons.org/ns#"
   xmlns:rdf="http://www.w3.org/1999/02/22-rdf-syntax-ns#"
   xmlns:svg="http://www.w3.org/2000/svg"
   xmlns="http://www.w3.org/2000/svg"
   xmlns:sodipodi="http://sodipodi.sourceforge.net/DTD/sodipodi-0.dtd"
   xmlns:inkscape="http://www.inkscape.org/namespaces/inkscape"
   width="210mm"
   height="297mm"
   viewBox="0 0 210 297"
   version="1.1"
   id="svg8"
   inkscape:version="1.0.1 (3bc2e813f5, 2020-09-07)"
   sodipodi:docname="house.svg">
  <defs
     id="defs2" />
  <sodipodi:namedview
     id="base"
     pagecolor="#ffffff"
     bordercolor="#666666"
     borderopacity="1.0"
     inkscape:pageopacity="0.0"
     inkscape:pageshadow="2"
     inkscape:zoom="3.959798"
     inkscape:cx="173.72561"
     inkscape:cy="657.65626"
     inkscape:document-units="mm"
     inkscape:current-layer="layer1"
     inkscape:document-rotation="0"
     showgrid="true"
     inkscape:window-width="1268"
     inkscape:window-height="967"
     inkscape:window-x="0"
     inkscape:window-y="0"
     inkscape:window-maximized="0">
    <inkscape:grid
       type="xygrid"
       id="grid10" />
  </sodipodi:namedview>
  <metadata
     id="metadata5">
    <rdf:RDF>
      <cc:Work
         rdf:about="">
        <dc:format>image/svg+xml</dc:format>
        <dc:type
           rdf:resource="http://purl.org/dc/dcmitype/StillImage" />
        <dc:title></dc:title>
      </cc:Work>
    </rdf:RDF>
  </metadata>
  <g
     inkscape:label="Layer 1"
     inkscape:groupmode="layer"
     id="layer1">
    <rect
       style="fill:#2b1100;stroke-width:0.264583"
       id="rect12"
       width="21.166666"
       height="21.166666"
       x="19.84375"
       y="162.71875"
       ry="5.0862704e-06" />
    <rect
       style="fill:#000000;stroke-width:0.264583"
       id="rect22"
       width="1.3229166"
       height="1.3229166"
       x="21.166666"
       y="181.23958"
       ry="5.0862704e-06" />
    <rect
       style="fill:#000000;stroke-width:0.264583"
       id="rect24"
       width="1.3229166"
       height="1.3229166"
       x="22.489584"
       y="181.23958"
       ry="5.0862704e-06" />
    <rect
       style="fill:#000000;stroke-width:0.264583"
       id="rect26"
       width="1.3229166"
       height="1.3229166"
       x="23.8125"
       y="181.23958"
       ry="5.0862704e-06" />
    <rect
       style="fill:#000000;stroke-width:0.264583"
       id="rect28"
       width="1.3229166"
       height="1.3229166"
       x="25.135416"
       y="181.23958"
       ry="5.0862704e-06" />
    <rect
       style="fill:#000000;stroke-width:0.264583"
       id="rect30"
       width="1.3229166"
       height="1.3229166"
       x="26.458332"
       y="181.23958"
       ry="5.0862704e-06" />
    <rect
       style="fill:#000000;stroke-width:0.264583"
       id="rect22-2"
       width="1.3229166"
       height="1.3229166"
       x="27.78125"
       y="181.23958"
       ry="5.0862709e-06" />
    <rect
       style="fill:#000000;stroke-width:0.264583"
       id="rect24-4"
       width="1.3229166"
       height="1.3229166"
       x="29.104168"
       y="181.23958"
       ry="5.0862709e-06" />
    <rect
       style="fill:#000000;stroke-width:0.264583"
       id="rect26-3"
       width="1.3229166"
       height="1.3229166"
       x="30.427086"
       y="181.23958"
       ry="5.0862709e-06" />
    <rect
       style="fill:#000000;stroke-width:0.264583"
       id="rect28-5"
       width="1.3229166"
       height="1.3229166"
       x="31.75"
       y="181.23958"
       ry="5.0862709e-06" />
    <rect
       style="fill:#000000;stroke-width:0.264583"
       id="rect30-8"
       width="1.3229166"
       height="1.3229166"
       x="33.072918"
       y="181.23958"
       ry="5.0862709e-06" />
    <rect
       style="fill:#000000;stroke-width:0.264583"
       id="rect22-4"
       width="1.3229166"
       height="1.3229166"
       x="34.395832"
       y="181.23958"
       ry="5.0862709e-06" />
    <rect
       style="fill:#000000;stroke-width:0.264583"
       id="rect24-42"
       width="1.3229166"
       height="1.3229166"
       x="35.71875"
       y="181.23958"
       ry="5.0862709e-06" />
    <rect
       style="fill:#000000;stroke-width:0.264583"
       id="rect26-8"
       width="1.3229166"
       height="1.3229166"
       x="37.041668"
       y="181.23958"
       ry="5.0862709e-06" />
    <rect
       style="fill:#000000;stroke-width:0.264583"
       id="rect28-6"
       width="1.3229166"
       height="1.3229166"
       x="38.364582"
       y="181.23958"
       ry="5.0862709e-06" />
    <rect
       style="fill:#000000;stroke-width:0.264583"
       id="rect26-7"
       width="1.3229166"
       height="1.3229166"
       x="179.91667"
       y="-39.6875"
       ry="5.0862709e-06"
       transform="rotate(90)" />
    <rect
       style="fill:#000000;stroke-width:0.264583"
       id="rect28-7"
       width="1.3229166"
       height="1.3229166"
       x="178.59375"
       y="-39.6875"
       ry="5.0862709e-06"
       transform="rotate(90)" />
    <rect
       style="fill:#000000;stroke-width:0.264583"
       id="rect30-82"
       width="1.3229166"
       height="1.3229166"
       x="177.27084"
       y="-39.6875"
       ry="5.0862709e-06"
       transform="rotate(90)" />
    <rect
       style="fill:#000000;stroke-width:0.264583"
       id="rect22-2-3"
       width="1.3229166"
       height="1.3229166"
       x="175.94792"
       y="-39.6875"
       ry="5.0862714e-06"
       transform="rotate(90)" />
    <rect
       style="fill:#000000;stroke-width:0.264583"
       id="rect24-4-3"
       width="1.3229166"
       height="1.3229166"
       x="174.625"
       y="-39.6875"
       ry="5.0862714e-06"
       transform="rotate(90)" />
    <rect
       style="fill:#000000;stroke-width:0.264583"
       id="rect26-3-7"
       width="1.3229166"
       height="1.3229166"
       x="173.30208"
       y="-39.6875"
       ry="5.0862714e-06"
       transform="rotate(90)" />
    <rect
       style="fill:#000000;stroke-width:0.264583"
       id="rect28-5-3"
       width="1.3229166"
       height="1.3229166"
       x="171.97917"
       y="-39.6875"
       ry="5.0862714e-06"
       transform="rotate(90)" />
    <rect
       style="fill:#000000;stroke-width:0.264583"
       id="rect30-8-3"
       width="1.3229166"
       height="1.3229166"
       x="170.65625"
       y="-39.6875"
       ry="5.0862714e-06"
       transform="rotate(90)" />
    <rect
       style="fill:#000000;stroke-width:0.264583"
       id="rect22-4-8"
       width="1.3229166"
       height="1.3229166"
       x="169.33334"
       y="-39.6875"
       ry="5.0862714e-06"
       transform="rotate(90)" />
    <rect
       style="fill:#000000;stroke-width:0.264583"
       id="rect24-42-0"
       width="1.3229166"
       height="1.3229166"
       x="168.01042"
       y="-39.6875"
       ry="5.0862714e-06"
       transform="rotate(90)" />
    <rect
       style="fill:#000000;stroke-width:0.264583"
       id="rect26-8-1"
       width="1.3229166"
       height="1.3229166"
       x="166.6875"
       y="-39.6875"
       ry="5.0862714e-06"
       transform="rotate(90)" />
    <rect
       style="fill:#000000;stroke-width:0.264583"
       id="rect28-6-0"
       width="1.3229166"
       height="1.3229166"
       x="165.36459"
       y="-39.6875"
       ry="5.0862714e-06"
       transform="rotate(90)" />
    <rect
       style="fill:#000000;stroke-width:0.264583"
       id="rect28-7-6"
       width="1.3229166"
       height="1.3229166"
       x="178.59375"
       y="-22.489584"
       ry="5.0862714e-06"
       transform="rotate(90)" />
    <rect
       style="fill:#000000;stroke-width:0.264583"
       id="rect30-82-2"
       width="1.3229166"
       height="1.3229166"
       x="177.27084"
       y="-22.489584"
       ry="5.0862714e-06"
       transform="rotate(90)" />
    <rect
       style="fill:#000000;stroke-width:0.264583"
       id="rect22-2-3-1"
       width="1.3229166"
       height="1.3229166"
       x="175.94792"
       y="-22.489584"
       ry="5.0862714e-06"
       transform="rotate(90)" />
    <rect
       style="fill:#000000;stroke-width:0.264583"
       id="rect24-4-3-1"
       width="1.3229166"
       height="1.3229166"
       x="174.625"
       y="-22.489584"
       ry="5.0862714e-06"
       transform="rotate(90)" />
    <rect
       style="fill:#000000;stroke-width:0.264583"
       id="rect26-3-7-7"
       width="1.3229166"
       height="1.3229166"
       x="173.30208"
       y="-22.489584"
       ry="5.0862714e-06"
       transform="rotate(90)" />
    <rect
       style="fill:#000000;stroke-width:0.264583"
       id="rect28-5-3-5"
       width="1.3229166"
       height="1.3229166"
       x="171.97917"
       y="-22.489584"
       ry="5.0862714e-06"
       transform="rotate(90)" />
    <rect
       style="fill:#000000;stroke-width:0.264583"
       id="rect30-8-3-4"
       width="1.3229166"
       height="1.3229166"
       x="170.65625"
       y="-22.489584"
       ry="5.0862714e-06"
       transform="rotate(90)" />
    <rect
       style="fill:#000000;stroke-width:0.264583"
       id="rect22-4-8-1"
       width="1.3229166"
       height="1.3229166"
       x="169.33334"
       y="-22.489584"
       ry="5.0862714e-06"
       transform="rotate(90)" />
    <rect
       style="fill:#000000;stroke-width:0.264583"
       id="rect24-42-0-8"
       width="1.3229166"
       height="1.3229166"
       x="168.01042"
       y="-22.489584"
       ry="5.0862714e-06"
       transform="rotate(90)" />
    <rect
       style="fill:#000000;stroke-width:0.264583"
       id="rect26-8-1-3"
       width="1.3229166"
       height="1.3229166"
       x="166.6875"
       y="-22.489584"
       ry="5.0862714e-06"
       transform="rotate(90)" />
    <rect
       style="fill:#000000;stroke-width:0.264583"
       id="rect28-6-0-5"
       width="1.3229166"
       height="1.3229166"
       x="165.36459"
       y="-22.489584"
       ry="5.0862714e-06"
       transform="rotate(90)" />
    <rect
       style="fill:#000000;stroke-width:0.264583"
       id="rect24-0"
       width="1.3229166"
       height="1.3229166"
       x="21.166666"
       y="179.91667"
       ry="5.0862709e-06" />
  </g>
</svg>
