<?xml version="1.0" encoding="UTF-8" standalone="no"?>
<svg
   xmlns:dc="http://purl.org/dc/elements/1.1/"
   xmlns:cc="http://creativecommons.org/ns#"
   xmlns:rdf="http://www.w3.org/1999/02/22-rdf-syntax-ns#"
   xmlns:svg="http://www.w3.org/2000/svg"
   xmlns="http://www.w3.org/2000/svg"
   xmlns:sodipodi="http://sodipodi.sourceforge.net/DTD/sodipodi-0.dtd"
   xmlns:inkscape="http://www.inkscape.org/namespaces/inkscape"
   width="210mm"
   height="297mm"
   viewBox="0 0 210 297"
   version="1.1"
   id="svg8"
   inkscape:version="1.0.1 (3bc2e813f5, 2020-09-07)"
   sodipodi:docname="mob1.svg">
  <defs
     id="defs2" />
  <sodipodi:namedview
     id="base"
     pagecolor="#ffffff"
     bordercolor="#666666"
     borderopacity="1.0"
     inkscape:pageopacity="0.0"
     inkscape:pageshadow="2"
     inkscape:zoom="1.4"
     inkscape:cx="315.81691"
     inkscape:cy="495.63126"
     inkscape:document-units="mm"
     inkscape:current-layer="layer1"
     inkscape:document-rotation="0"
     showgrid="false"
     inkscape:window-width="1268"
     inkscape:window-height="967"
     inkscape:window-x="0"
     inkscape:window-y="0"
     inkscape:window-maximized="0" />
  <metadata
     id="metadata5">
    <rdf:RDF>
      <cc:Work
         rdf:about="">
        <dc:format>image/svg+xml</dc:format>
        <dc:type
           rdf:resource="http://purl.org/dc/dcmitype/StillImage" />
        <dc:title></dc:title>
      </cc:Work>
    </rdf:RDF>
  </metadata>
  <g
     inkscape:label="Layer 1"
     inkscape:groupmode="layer"
     id="layer1">
    <ellipse
       style="fill:#000000;stroke-width:0.222991"
       id="path22-5"
       cx="104.17054"
       cy="162.26849"
       rx="4.6582808"
       ry="9.9338617"
       transform="matrix(0.99725785,0.0740053,-0.2733587,0.96191217,0,0)" />
    <ellipse
       style="fill:#000000;stroke-width:0.222991"
       id="path22"
       cx="21.59568"
       cy="192.85638"
       rx="4.6582808"
       ry="9.9338617"
       transform="matrix(0.79010326,-0.61297377,0.44126598,0.89737636,0,0)" />
    <path
       id="path19"
       style="fill:#552200;stroke-width:0.241908"
       d="m 108.77329,146.38211 c -0.85964,8.27217 -20.02567,17.49142 -31.041965,18.03705 -24.954767,1.236 -29.347337,-7.49932 -27.433831,-18.37218 1.451166,-8.24576 14.099217,-14.92272 25.629859,-16.25537 15.878868,-1.83521 34.315397,2.4502 32.845937,16.5905 z"
       sodipodi:nodetypes="sssss" />
    <g
       id="g72"
       transform="translate(-3.3561734,7.9568934)">
      <path
         id="path10"
         style="fill:#803300;stroke-width:0.264583"
         d="m 128.80289,119.17596 c -1.30985,10.43525 -17.7726,12.62849 -27.66239,12.62849 -9.8898,0 -16.036177,-8.25855 -16.036177,-18.77569 0,-10.51713 9.62088,-15.70208 19.510677,-15.70208 9.8898,0 25.39061,12.26759 24.18789,21.84928 z"
         sodipodi:nodetypes="sssss" />
      <path
         id="path13"
         style="fill:#000000;stroke-width:0.264583"
         d="m 116.77577,109.68789 c -0.30711,1.17053 -2.05825,1.00226 -3.60814,1.00226 -1.54989,0 -2.73294,-1.07789 -2.27179,-2.20497 0.4016,-0.98154 1.80626,-1.35303 3.34087,-1.1359 1.50264,0.21261 2.8481,1.1607 2.53906,2.33861 z"
         sodipodi:nodetypes="sssss" />
      <path
         id="path16"
         style="fill:#000000;stroke-width:0.264583"
         d="m 123.45647,126.90551 c -1.37016,0.95913 -1.5272,1.13393 -4.15774,2.17336 -2.40252,0.94934 -5.85863,-4.33253 -5.85863,-5.48066 0,-1.14812 2.2713,-0.7871 5.29167,0.33073 2.58509,0.95674 5.66528,2.31815 4.7247,2.97657 z"
         sodipodi:nodetypes="sssss" />
    </g>
    <ellipse
       style="fill:#1a1a1a;stroke-width:0.222991"
       id="path22-7"
       cx="32.686028"
       cy="192.69897"
       rx="4.6582808"
       ry="9.9338617"
       transform="matrix(0.84348996,-0.53714494,0.356238,0.93439525,0,0)" />
    <ellipse
       style="fill:#1a1a1a;stroke-width:0.222991"
       id="path22-7-9"
       cx="96.925629"
       cy="168.85381"
       rx="4.6582808"
       ry="9.9338617"
       transform="matrix(0.99999999,-1.430701e-4,-0.20128239,0.97953326,0,0)" />
  </g>
</svg>
